<?xml version="1.0" encoding="UTF-8"?><svg id="Layer_1" xmlns="http://www.w3.org/2000/svg" viewBox="0 0 1080 1080"><path d="m540,52c65.88,0,129.79,12.9,189.95,38.35,58.11,24.58,110.3,59.77,155.12,104.58s80,97.01,104.58,155.12c25.45,60.16,38.35,124.07,38.35,189.95s-12.9,129.79-38.35,189.95c-24.58,58.11-59.77,110.3-104.58,155.12s-97.01,80-155.12,104.58c-60.16,25.45-124.07,38.35-189.95,38.35s-129.79-12.9-189.95-38.35c-58.11-24.58-110.3-59.77-155.12-104.58s-80-97.01-104.58-155.12c-25.45-60.16-38.35-124.07-38.35-189.95s12.9-129.79,38.35-189.95c24.58-58.11,59.77-110.3,104.58-155.12s97.01-80,155.12-104.58c60.16-25.45,124.07-38.35,189.95-38.35m0-2c-270.62,0-490,219.38-490,490s219.38,490,490,490,490-219.38,490-490S810.62,50,540,50h0Z" style="fill:#e9e0d3;"/><circle cx="540" cy="50" r="19"/><path d="m540,32c9.93,0,18,8.07,18,18s-8.07,18-18,18-18-8.07-18-18,8.07-18,18-18m0-2c-11.05,0-20,8.95-20,20s8.95,20,20,20,20-8.95,20-20-8.95-20-20-20h0Z" style="fill:#e9e0d3;"/><circle cx="50" cy="535.91" r="19"/><path d="m50,517.91c9.93,0,18,8.07,18,18s-8.07,18-18,18-18-8.07-18-18,8.07-18,18-18m0-2c-11.05,0-20,8.95-20,20s8.95,20,20,20,20-8.95,20-20-8.95-20-20-20h0Z" style="fill:#e9e0d3;"/><path d="m889.37,902.59c-5.08,0-9.85-1.98-13.44-5.56-7.41-7.41-7.41-19.46,0-26.87,3.59-3.59,8.36-5.56,13.44-5.56s9.85,1.98,13.43,5.56c7.41,7.41,7.41,19.46,0,26.87-3.59,3.59-8.36,5.56-13.43,5.56Z"/><path d="m889.37,865.59c4.81,0,9.33,1.87,12.73,5.27,7.02,7.02,7.02,18.44,0,25.46-3.4,3.4-7.92,5.27-12.73,5.27s-9.33-1.87-12.73-5.27c-7.02-7.02-7.02-18.44,0-25.46,3.4-3.4,7.92-5.27,12.73-5.27m0-2c-5.12,0-10.24,1.95-14.14,5.86-7.81,7.81-7.81,20.47,0,28.28,3.91,3.91,9.02,5.86,14.14,5.86s10.24-1.95,14.14-5.86c7.81-7.81,7.81-20.47,0-28.28-3.91-3.91-9.02-5.86-14.14-5.86h0Z" style="fill:#e9e0d3;"/></svg>