<?xml version="1.0" encoding="UTF-8"?><svg id="Layer_1" xmlns="http://www.w3.org/2000/svg" viewBox="0 0 1080 1080"><path d="m540,150c52.65,0,103.73,10.31,151.81,30.65,46.44,19.64,88.15,47.76,123.97,83.58,35.82,35.82,63.94,77.53,83.58,123.97,20.34,48.08,30.65,99.15,30.65,151.8s-10.31,103.73-30.65,151.8c-19.64,46.44-47.76,88.15-83.58,123.97-35.82,35.82-77.53,63.94-123.97,83.58-48.08,20.34-99.15,30.65-151.81,30.65s-103.73-10.31-151.81-30.65c-46.44-19.64-88.15-47.76-123.97-83.58-35.82-35.82-63.94-77.53-83.58-123.97-20.34-48.08-30.65-99.15-30.65-151.8s10.31-103.73,30.65-151.8c19.64-46.44,47.76-88.15,83.58-123.97,35.82-35.82,77.53-63.94,123.97-83.58,48.08-20.34,99.15-30.65,151.81-30.65m0-2c-216.5,0-392,175.5-392,392s175.5,392,392,392,392-175.5,392-392-175.5-392-392-392h0Z" style="fill:#e9e0d3;"/><circle cx="932" cy="536.73" r="15"/><path d="m932,522.73c7.72,0,14,6.28,14,14s-6.28,14-14,14-14-6.28-14-14,6.28-14,14-14m0-2c-8.84,0-16,7.16-16,16s7.16,16,16,16,16-7.16,16-16-7.16-16-16-16h0Z" style="fill:#e9e0d3;"/><path d="m265.13,275.5c-4.01,0-7.77-1.56-10.61-4.39-5.85-5.85-5.85-15.36,0-21.21,2.83-2.83,6.6-4.39,10.61-4.39s7.77,1.56,10.61,4.39c5.85,5.85,5.85,15.37,0,21.21-2.83,2.83-6.6,4.39-10.61,4.39Z"/><path d="m265.13,246.5c3.74,0,7.26,1.46,9.9,4.1s4.1,6.16,4.1,9.9-1.46,7.26-4.1,9.9-6.16,4.1-9.9,4.1-7.26-1.46-9.9-4.1c-5.46-5.46-5.46-14.34,0-19.8,2.64-2.64,6.16-4.1,9.9-4.1m0-2c-4.09,0-8.19,1.56-11.31,4.69-6.25,6.25-6.25,16.38,0,22.63,3.12,3.12,7.22,4.69,11.31,4.69s8.19-1.56,11.31-4.69c6.25-6.25,6.25-16.38,0-22.63-3.12-3.12-7.22-4.69-11.31-4.69h0Z" style="fill:#e9e0d3;"/><path d="m262.81,832.19c-4.01,0-7.77-1.56-10.61-4.39-5.85-5.85-5.85-15.37,0-21.21,2.83-2.83,6.6-4.39,10.61-4.39s7.77,1.56,10.61,4.39c5.85,5.85,5.85,15.36,0,21.21-2.83,2.83-6.6,4.39-10.61,4.39Z"/><path d="m262.81,803.19c3.74,0,7.26,1.46,9.9,4.1,5.46,5.46,5.46,14.34,0,19.8-2.64,2.64-6.16,4.1-9.9,4.1s-7.26-1.46-9.9-4.1c-5.46-5.46-5.46-14.34,0-19.8,2.64-2.64,6.16-4.1,9.9-4.1m0-2c-4.09,0-8.19,1.56-11.31,4.69-6.25,6.25-6.25,16.38,0,22.63,3.12,3.12,7.22,4.69,11.31,4.69s8.19-1.56,11.31-4.69c6.25-6.25,6.25-16.38,0-22.63-3.12-3.12-7.22-4.69-11.31-4.69h0Z" style="fill:#e9e0d3;"/></svg>