<?xml version="1.0" encoding="UTF-8"?><svg id="Layer_1" xmlns="http://www.w3.org/2000/svg" viewBox="0 0 1080 1080"><path d="m540,291.12c33.6,0,66.19,6.58,96.87,19.56,29.64,12.54,56.25,30.48,79.11,53.34,22.86,22.86,40.8,49.47,53.34,79.11,12.98,30.68,19.56,63.28,19.56,96.87s-6.58,66.19-19.56,96.87c-12.54,29.64-30.48,56.25-53.34,79.11-22.86,22.86-49.47,40.8-79.11,53.34-30.68,12.98-63.28,19.56-96.87,19.56s-66.19-6.58-96.87-19.56c-29.64-12.54-56.25-30.48-79.11-53.34-22.86-22.86-40.8-49.47-53.34-79.11-12.98-30.68-19.56-63.28-19.56-96.87s6.58-66.19,19.56-96.87c12.54-29.64,30.48-56.25,53.34-79.11,22.86-22.86,49.47-40.8,79.11-53.34,30.68-12.98,63.28-19.56,96.87-19.56m0-2c-138.56,0-250.88,112.32-250.88,250.88s112.32,250.88,250.88,250.88,250.88-112.32,250.88-250.88-112.32-250.88-250.88-250.88h0Z" style="fill:#e9e0d3;"/><circle cx="790.88" cy="537.91" r="9.24"/><path d="m790.88,529.67c4.54,0,8.24,3.7,8.24,8.24s-3.7,8.24-8.24,8.24-8.24-3.7-8.24-8.24,3.7-8.24,8.24-8.24m0-2c-5.66,0-10.24,4.58-10.24,10.24s4.58,10.24,10.24,10.24,10.24-4.58,10.24-10.24-4.58-10.24-10.24-10.24h0Z" style="fill:#e9e0d3;"/><path d="m364.08,370.36c-2.47,0-4.79-.96-6.53-2.71s-2.71-4.07-2.71-6.53.96-4.79,2.71-6.53,4.07-2.71,6.53-2.71,4.79.96,6.53,2.71c3.6,3.6,3.6,9.46,0,13.07-1.75,1.75-4.07,2.71-6.53,2.71Z"/><path d="m364.08,352.88c2.2,0,4.27.86,5.83,2.41,1.56,1.56,2.41,3.63,2.41,5.83s-.86,4.27-2.41,5.83c-1.56,1.56-3.63,2.41-5.83,2.41s-4.27-.86-5.83-2.41c-3.21-3.21-3.21-8.44,0-11.65,1.56-1.56,3.63-2.41,5.83-2.41m0-2c-2.62,0-5.24,1-7.24,3-4,4-4,10.48,0,14.48,2,2,4.62,3,7.24,3s5.24-1,7.24-3c4-4,4-10.48,0-14.48-2-2-4.62-3-7.24-3h0Z" style="fill:#e9e0d3;"/><path d="m362.6,726.64c-2.47,0-4.79-.96-6.53-2.71-3.6-3.6-3.6-9.46,0-13.07,1.75-1.75,4.07-2.71,6.53-2.71s4.79.96,6.53,2.71,2.71,4.07,2.71,6.53-.96,4.79-2.71,6.53-4.07,2.71-6.53,2.71Z"/><path d="m362.6,709.16c2.2,0,4.27.86,5.83,2.41,1.56,1.56,2.41,3.63,2.41,5.83s-.86,4.27-2.41,5.83c-1.56,1.56-3.63,2.41-5.83,2.41s-4.27-.86-5.83-2.41c-1.56-1.56-2.41-3.63-2.41-5.83s.86-4.27,2.41-5.83c1.56-1.56,3.63-2.41,5.83-2.41m0-2c-2.62,0-5.24,1-7.24,3-4,4-4,10.48,0,14.48,2,2,4.62,3,7.24,3s5.24-1,7.24-3c4-4,4-10.48,0-14.48-2-2-4.62-3-7.24-3h0Z" style="fill:#e9e0d3;"/></svg>