<?xml version="1.0" encoding="UTF-8"?><svg id="Layer_1" xmlns="http://www.w3.org/2000/svg" viewBox="0 0 1080 1080"><path d="m540,228.4c42.07,0,82.87,8.24,121.29,24.49,37.1,15.69,70.43,38.16,99.05,66.78,28.62,28.62,51.09,61.94,66.78,99.05,16.25,38.41,24.49,79.22,24.49,121.29s-8.24,82.87-24.49,121.29c-15.69,37.1-38.16,70.43-66.78,99.05-28.62,28.62-61.94,51.09-99.05,66.78-38.41,16.25-79.22,24.49-121.29,24.49s-82.87-8.24-121.29-24.49c-37.1-15.69-70.43-38.16-99.05-66.78-28.62-28.62-51.09-61.94-66.78-99.05-16.25-38.41-24.49-79.22-24.49-121.29s8.24-82.87,24.49-121.29c15.69-37.1,38.16-70.43,66.78-99.05,28.62-28.62,61.94-51.09,99.05-66.78,38.41-16.25,79.22-24.49,121.29-24.49m0-2c-173.2,0-313.6,140.4-313.6,313.6s140.4,313.6,313.6,313.6,313.6-140.4,313.6-313.6-140.4-313.6-313.6-313.6h0Z" style="fill:#e9e0d3;"/><path d="m540,238.2c-6.51,0-11.8-5.29-11.8-11.8s5.29-11.8,11.8-11.8,11.8,5.29,11.8,11.8-5.29,11.8-11.8,11.8Z"/><path d="m540,215.6c5.96,0,10.8,4.84,10.8,10.8s-4.84,10.8-10.8,10.8-10.8-4.84-10.8-10.8,4.84-10.8,10.8-10.8m0-2c-7.07,0-12.8,5.73-12.8,12.8s5.73,12.8,12.8,12.8,12.8-5.73,12.8-12.8-5.73-12.8-12.8-12.8h0Z" style="fill:#e9e0d3;"/><path d="m226.4,549.19c-6.51,0-11.8-5.29-11.8-11.8s5.29-11.8,11.8-11.8,11.8,5.29,11.8,11.8-5.29,11.8-11.8,11.8Z"/><path d="m226.4,526.59c5.96,0,10.8,4.84,10.8,10.8s-4.84,10.8-10.8,10.8-10.8-4.84-10.8-10.8,4.84-10.8,10.8-10.8m0-2c-7.07,0-12.8,5.73-12.8,12.8s5.73,12.8,12.8,12.8,12.8-5.73,12.8-12.8-5.73-12.8-12.8-12.8h0Z" style="fill:#e9e0d3;"/><path d="m540,865.4c-6.51,0-11.8-5.29-11.8-11.8s5.29-11.8,11.8-11.8,11.8,5.29,11.8,11.8-5.29,11.8-11.8,11.8Z"/><path d="m540,842.8c5.96,0,10.8,4.84,10.8,10.8s-4.84,10.8-10.8,10.8-10.8-4.84-10.8-10.8,4.84-10.8,10.8-10.8m0-2c-7.07,0-12.8,5.73-12.8,12.8s5.73,12.8,12.8,12.8,12.8-5.73,12.8-12.8-5.73-12.8-12.8-12.8h0Z" style="fill:#e9e0d3;"/><path d="m761.75,330.05c-3.15,0-6.12-1.23-8.34-3.46-4.6-4.6-4.6-12.09,0-16.69,2.23-2.23,5.19-3.46,8.34-3.46s6.12,1.23,8.34,3.46c2.23,2.23,3.46,5.19,3.46,8.34s-1.23,6.12-3.46,8.34-5.19,3.46-8.34,3.46Z"/><path d="m761.75,307.45c2.88,0,5.6,1.12,7.64,3.16,2.04,2.04,3.16,4.75,3.16,7.64s-1.12,5.6-3.16,7.64c-2.04,2.04-4.75,3.16-7.64,3.16s-5.6-1.12-7.64-3.16c-2.04-2.04-3.16-4.75-3.16-7.64s1.12-5.6,3.16-7.64c2.04-2.04,4.75-3.16,7.64-3.16m0-2c-3.28,0-6.55,1.25-9.05,3.75-5,5-5,13.1,0,18.1,2.5,2.5,5.78,3.75,9.05,3.75s6.55-1.25,9.05-3.75c5-5,5-13.1,0-18.1-2.5-2.5-5.77-3.75-9.05-3.75h0Z" style="fill:#e9e0d3;"/><path d="m763.6,771.7c-3.15,0-6.12-1.23-8.34-3.46s-3.46-5.19-3.46-8.34,1.23-6.12,3.46-8.34,5.19-3.46,8.34-3.46,6.12,1.23,8.34,3.46,3.46,5.19,3.46,8.34-1.23,6.12-3.46,8.34-5.19,3.46-8.34,3.46Z"/><path d="m763.6,749.1c2.88,0,5.6,1.12,7.64,3.16,2.04,2.04,3.16,4.75,3.16,7.64s-1.12,5.6-3.16,7.64c-2.04,2.04-4.75,3.16-7.64,3.16s-5.6-1.12-7.64-3.16c-4.21-4.21-4.21-11.06,0-15.27,2.04-2.04,4.75-3.16,7.64-3.16m0-2c-3.28,0-6.55,1.25-9.05,3.75-5,5-5,13.1,0,18.1,2.5,2.5,5.78,3.75,9.05,3.75s6.55-1.25,9.05-3.75c5-5,5-13.1,0-18.1-2.5-2.5-5.78-3.75-9.05-3.75h0Z" style="fill:#e9e0d3;"/></svg>